<svg xmlns="http://www.w3.org/2000/svg" viewBox="0 0 36 36" shape-rendering="crispEdges">
  <rect width="36" height="36" rx="8" fill="#ffffff"/>
  <g transform="translate(2,11) scale(2)" fill="#5b7cfa">
    <rect x="4" y="0" width="1" height="1"/><rect x="5" y="0" width="1" height="1"/>
    <rect x="3" y="1" width="1" height="1"/><rect x="4" y="1" width="1" height="1"/>
    <rect x="2" y="2" width="1" height="1"/><rect x="3" y="2" width="1" height="1"/>
    <rect x="1" y="3" width="1" height="1"/><rect x="2" y="3" width="1" height="1"/>
    <rect x="2" y="4" width="1" height="1"/><rect x="3" y="4" width="1" height="1"/>
    <rect x="3" y="5" width="1" height="1"/><rect x="4" y="5" width="1" height="1"/>
    <rect x="4" y="6" width="1" height="1"/><rect x="5" y="6" width="1" height="1"/>
    <rect x="7" y="2" width="1" height="1"/><rect x="8" y="2" width="1" height="1"/><rect x="9" y="2" width="1" height="1"/>
    <rect x="6" y="3" width="1" height="1"/>
    <rect x="7" y="4" width="1" height="1"/><rect x="8" y="4" width="1" height="1"/><rect x="9" y="4" width="1" height="1"/>
    <rect x="11" y="0" width="1" height="1"/><rect x="12" y="0" width="1" height="1"/>
    <rect x="12" y="1" width="1" height="1"/><rect x="13" y="1" width="1" height="1"/>
    <rect x="13" y="2" width="1" height="1"/><rect x="14" y="2" width="1" height="1"/>
    <rect x="14" y="3" width="1" height="1"/><rect x="15" y="3" width="1" height="1"/>
    <rect x="13" y="4" width="1" height="1"/><rect x="14" y="4" width="1" height="1"/>
    <rect x="12" y="5" width="1" height="1"/><rect x="13" y="5" width="1" height="1"/>
    <rect x="11" y="6" width="1" height="1"/><rect x="12" y="6" width="1" height="1"/>
  </g>
   <text x="19" y="34" text-anchor="middle" font-family="ui-monospace, Menlo, monospace" font-size="13"
          font-weight="600" fill="#f04438">mcp
    </text>
</svg>
